<svg id="visual" viewBox="0 0 900 600" width="900" height="600" xmlns="http://www.w3.org/2000/svg" xmlns:xlink="http://www.w3.org/1999/xlink" version="1.1"><rect x="0" y="0" width="900" height="600" fill="#FFFFFF"></rect><path d="M0 166L21.5 163.3C43 160.7 86 155.3 128.8 148C171.7 140.7 214.3 131.3 257.2 121C300 110.7 343 99.3 385.8 95.7C428.7 92 471.3 96 514.2 108.3C557 120.7 600 141.3 642.8 136.8C685.7 132.3 728.3 102.7 771.2 91.3C814 80 857 87 878.5 90.5L900 94L900 0L878.5 0C857 0 814 0 771.2 0C728.3 0 685.7 0 642.8 0C600 0 557 0 514.2 0C471.3 0 428.7 0 385.8 0C343 0 300 0 257.2 0C214.3 0 171.7 0 128.8 0C86 0 43 0 21.5 0L0 0Z" fill="#0066FF" stroke-linecap="round" stroke-linejoin="miter"></path></svg>