<svg id="visual" viewBox="0 0 900 600" width="900" height="600" xmlns="http://www.w3.org/2000/svg" xmlns:xlink="http://www.w3.org/1999/xlink" version="1.1"><rect x="0" y="0" width="900" height="600" fill="#FFFFFF"></rect><path d="M0 490L21.5 485C43 480 86 470 128.8 458.8C171.7 447.7 214.3 435.3 257.2 434.2C300 433 343 443 385.8 457.8C428.7 472.7 471.3 492.3 514.2 480C557 467.7 600 423.3 642.8 410.3C685.7 397.3 728.3 415.7 771.2 419.2C814 422.7 857 411.3 878.5 405.7L900 400L900 601L878.5 601C857 601 814 601 771.2 601C728.3 601 685.7 601 642.8 601C600 601 557 601 514.2 601C471.3 601 428.7 601 385.8 601C343 601 300 601 257.2 601C214.3 601 171.7 601 128.8 601C86 601 43 601 21.5 601L0 601Z" fill="#61072c" stroke-linecap="round" stroke-linejoin="miter"></path></svg>